<?xml version="1.0" encoding="UTF-8"?>
<svg xmlns="http://www.w3.org/2000/svg" xmlns:xlink="http://www.w3.org/1999/xlink" width="150px" height="150px" viewBox="0 0 14 14" version="1.1">
<g id="surface1">
<path style=" stroke:none;fill-rule:nonzero;fill:rgb(1.176471%,0.392157%,1.568627%);fill-opacity:1;" d="M 13.824219 2.160156 C 13.683594 2 13.484375 1.910156 13.273438 1.910156 L 3.222656 1.910156 L 3.082031 1.0625 C 3.023438 0.710938 2.71875 0.453125 2.363281 0.453125 L 0.726562 0.453125 C 0.324219 0.453125 0 0.78125 0 1.183594 C 0 1.585938 0.324219 1.910156 0.726562 1.910156 L 1.746094 1.910156 L 3.101562 10.027344 C 3.105469 10.0625 3.121094 10.089844 3.132812 10.117188 C 3.144531 10.15625 3.152344 10.195312 3.171875 10.226562 C 3.195312 10.277344 3.226562 10.316406 3.257812 10.359375 C 3.28125 10.386719 3.300781 10.414062 3.328125 10.441406 C 3.371094 10.480469 3.417969 10.507812 3.46875 10.535156 C 3.496094 10.550781 3.519531 10.570312 3.550781 10.582031 C 3.636719 10.617188 3.722656 10.636719 3.816406 10.636719 C 3.816406 10.636719 11.816406 10.636719 11.816406 10.636719 C 12.21875 10.636719 12.546875 10.3125 12.546875 9.910156 C 12.546875 9.507812 12.21875 9.183594 11.816406 9.183594 L 4.433594 9.183594 L 4.3125 8.453125 L 12.546875 8.453125 C 12.90625 8.453125 13.214844 8.1875 13.265625 7.832031 L 13.992188 2.738281 C 14.023438 2.53125 13.960938 2.320312 13.824219 2.160156 Z M 12.433594 3.363281 L 12.226562 4.816406 L 9.636719 4.816406 L 9.636719 3.363281 Z M 8.910156 3.363281 L 8.910156 4.816406 L 6.726562 4.816406 L 6.726562 3.363281 Z M 8.910156 5.546875 L 8.910156 7 L 6.726562 7 L 6.726562 5.546875 Z M 6 3.363281 L 6 4.816406 L 3.816406 4.816406 C 3.78125 4.816406 3.746094 4.828125 3.710938 4.839844 L 3.464844 3.363281 Z M 3.828125 5.546875 L 6 5.546875 L 6 7 L 4.070312 7 Z M 9.636719 7 L 9.636719 5.546875 L 12.121094 5.546875 L 11.914062 7 Z M 9.636719 7 "/>
<path style=" stroke:none;fill-rule:nonzero;fill:rgb(1.176471%,0.392157%,1.568627%);fill-opacity:1;" d="M 6 12.453125 C 6 13.058594 5.511719 13.546875 4.910156 13.546875 C 4.304688 13.546875 3.816406 13.058594 3.816406 12.453125 C 3.816406 11.851562 4.304688 11.363281 4.910156 11.363281 C 5.511719 11.363281 6 11.851562 6 12.453125 Z M 6 12.453125 "/>
<path style=" stroke:none;fill-rule:nonzero;fill:rgb(1.176471%,0.392157%,1.568627%);fill-opacity:1;" d="M 12.546875 12.453125 C 12.546875 13.058594 12.058594 13.546875 11.453125 13.546875 C 10.851562 13.546875 10.363281 13.058594 10.363281 12.453125 C 10.363281 11.851562 10.851562 11.363281 11.453125 11.363281 C 12.058594 11.363281 12.546875 11.851562 12.546875 12.453125 Z M 12.546875 12.453125 "/>
</g>
</svg>
